<svg xmlns="http://www.w3.org/2000/svg" width="32" height="32" viewBox="0 0 32 32">
<g>
<path d="M 1.38 18.56 C1.83,19.72 4.74,20.00 16.47,20.00 L 31.00 20.00 L 31.01 12.25 C31.02,7.99 31.30,3.49 31.63,2.25 L 32.00 0.87 L 32.00 32.00 L 31.99 28.75 C31.99,28.49 31.98,28.25 31.98,28.01 C31.98,25.36 31.98,23.73 31.18,22.71 C29.88,21.06 26.48,21.06 17.55,21.06 C17.05,21.06 16.54,21.06 16.01,21.06 L 1.24 21.06 L 0.62 24.15 C0.28,25.86 0.00,28.32 0.00,29.62 L 0.00 0.00 L 16.12 0.00 C2.46,0.00 0.00,0.23 0.00,1.50 C0.00,2.33 0.34,3.00 0.75,3.00 C1.16,3.00 1.35,6.17 1.17,10.06 C0.98,13.94 1.08,17.77 1.38,18.56 ZM 6.97 10.58 C5.96,13.23 5.44,13.52 4.49,11.99 C4.15,11.43 5.29,9.56 7.02,7.82 C9.55,5.29 10.35,4.95 11.06,6.08 C11.70,7.11 11.39,7.59 9.92,7.83 C8.80,8.01 7.48,9.24 6.97,10.58 ZM 15.50 10.00 C15.16,10.55 14.46,11.00 13.94,11.00 C13.42,11.00 13.00,10.55 13.00,10.00 C13.00,9.45 13.70,9.00 14.56,9.00 C15.42,9.00 15.84,9.45 15.50,10.00 Z" fill="rgb(122,156,194)"/>
<path d="M 30.93 22.44 C31.02,22.53 31.10,22.62 31.18,22.71 C31.62,23.27 31.81,24.01 31.90,25.00 L 26.00 25.00 C20.01,25.00 18.01,26.25 22.23,27.35 C23.83,27.77 24.16,28.24 23.38,29.02 C22.00,30.40 8.30,29.90 9.00,28.50 C9.49,27.53 10.64,27.30 16.18,27.10 C17.97,27.03 19.09,26.31 19.53,24.92 C20.07,23.20 20.91,22.87 24.34,23.05 C29.16,23.30 30.63,23.21 30.93,22.44 ZM 0.62 24.15 L 1.24 21.06 L 16.01 21.06 C16.54,21.06 17.05,21.06 17.55,21.06 C23.15,21.06 26.58,21.06 28.67,21.47 C26.20,21.21 21.91,21.06 16.50,21.06 C8.52,21.06 2.00,21.42 2.00,21.86 C2.00,22.71 2.17,22.75 8.44,23.29 C15.17,23.88 13.46,25.52 6.50,25.16 L 0.49 24.85 C0.53,24.61 0.57,24.38 0.62,24.15 Z" fill="rgb(138,174,215)"/>
<path d="M 30.93 22.44 C30.63,23.21 29.16,23.30 24.34,23.05 C20.91,22.87 20.07,23.20 19.53,24.92 C19.09,26.31 17.97,27.03 16.18,27.10 C10.64,27.30 9.49,27.53 9.00,28.50 C8.96,28.59 8.97,28.67 9.03,28.75 C7.81,28.19 8.17,27.55 10.76,27.18 C14.23,26.69 12.90,25.63 9.38,25.20 C13.79,25.03 14.11,23.78 8.44,23.29 C2.17,22.75 2.00,22.71 2.00,21.86 C2.00,21.42 8.52,21.06 16.50,21.06 C21.91,21.06 26.20,21.21 28.67,21.47 C29.73,21.67 30.44,21.98 30.93,22.44 ZM 15.67 14.73 C15.49,17.13 15.02,17.51 12.18,17.60 C9.09,17.69 8.91,17.51 9.20,14.60 C9.42,12.36 9.99,11.54 11.25,11.64 C12.21,11.72 13.00,11.15 13.00,10.39 C13.00,10.32 13.01,10.26 13.02,10.19 C13.10,10.65 13.48,11.00 13.94,11.00 C14.18,11.00 14.46,10.90 14.72,10.75 C13.76,12.02 13.76,13.27 14.94,12.54 C15.46,12.22 15.79,13.20 15.67,14.73 ZM 23.33 29.07 C23.35,29.05 23.37,29.03 23.38,29.02 C24.16,28.24 23.83,27.77 22.23,27.35 C24.40,27.92 24.54,28.57 23.33,29.07 ZM 0.47 25.00 C0.47,24.95 0.48,24.90 0.49,24.85 L 3.31 25.00 ZM 15.60 9.76 C15.70,9.34 15.31,9.02 14.63,9.00 C14.65,9.00 14.68,9.00 14.70,9.00 C15.78,9.00 16.05,9.18 15.60,9.76 ZM 15.85 29.82 C16.44,29.83 17.02,29.84 17.60,29.83 C17.04,29.84 16.46,29.84 15.85,29.82 Z" fill="rgb(165,205,245)"/>
<path d="M 0.00 28.50 L 0.00 25.00 L 5.94 25.00 C11.78,25.00 15.21,26.55 10.76,27.18 C5.92,27.87 8.84,29.51 15.40,29.80 C22.41,30.10 26.78,28.54 22.23,27.35 C18.01,26.25 20.01,25.00 26.00,25.00 L 32.00 25.00 L 32.00 28.50 L 32.00 32.00 L 16.00 32.00 L 0.00 32.00 L 0.00 28.50 ZM 1.38 18.56 C1.08,17.77 0.98,13.94 1.17,10.06 C1.35,6.17 1.16,3.00 0.75,3.00 C0.34,3.00 0.00,2.33 0.00,1.50 C0.00,0.23 2.46,-0.00 16.12,-0.00 L 32.23 -0.00 L 31.63 2.25 C31.30,3.49 31.02,7.99 31.01,12.25 L 31.00 20.00 L 16.47 20.00 C4.74,20.00 1.83,19.72 1.38,18.56 ZM 15.67 14.73 C15.79,13.20 15.46,12.22 14.94,12.54 C13.59,13.37 13.78,11.62 15.20,10.20 C16.13,9.27 16.02,9.00 14.70,9.00 C13.77,9.00 13.00,9.62 13.00,10.39 C13.00,11.15 12.21,11.72 11.25,11.64 C9.99,11.54 9.42,12.36 9.20,14.60 C8.91,17.51 9.09,17.69 12.18,17.60 C15.02,17.51 15.49,17.13 15.67,14.73 ZM 6.97 10.58 C7.48,9.24 8.80,8.01 9.92,7.83 C11.39,7.59 11.70,7.11 11.06,6.08 C10.35,4.95 9.55,5.29 7.02,7.82 C5.29,9.56 4.15,11.43 4.49,11.99 C5.44,13.52 5.96,13.23 6.97,10.58 Z" fill="rgb(231,247,251)"/>
</g>
</svg>